<?xml version="1.0" standalone="no"?>
<!DOCTYPE svg PUBLIC "-//W3C//DTD SVG 20010904//EN"
 "http://www.w3.org/TR/2001/REC-SVG-20010904/DTD/svg10.dtd">
<svg version="1.0" xmlns="http://www.w3.org/2000/svg"
 width="512.000000pt" height="512.000000pt" viewBox="0 0 512.000000 512.000000"
 preserveAspectRatio="xMidYMid meet">
<metadata>
Created by potrace 1.14, written by Peter Selinger 2001-2017
</metadata>
<g transform="translate(0.000000,512.000000) scale(0.100000,-0.100000)"
fill="#000000" stroke="none">
<path d="M2060 4290 c-70 -12 -120 -63 -145 -148 l-15 -50 -93 -2 c-50 -1
-132 -3 -182 -5 -49 -2 -182 -6 -295 -9 -374 -12 -384 -13 -434 -62 -47 -47
-57 -84 -55 -195 2 -54 0 -101 -2 -104 -5 -4 -162 -45 -229 -60 -8 -2 -116
-29 -240 -60 -235 -59 -275 -77 -304 -133 -34 -66 -31 -85 58 -438 46 -187
182 -726 301 -1199 119 -473 225 -879 235 -901 22 -51 90 -95 147 -96 21 0
382 86 803 192 421 105 776 194 789 196 14 3 28 7 31 9 4 2 21 7 39 10 50 9
103 33 131 60 30 29 26 29 235 -15 83 -18 161 -34 174 -36 22 -5 65 -26 291
-147 41 -22 153 -80 249 -130 166 -85 177 -89 227 -85 61 5 111 35 138 82 32
56 156 289 271 511 43 83 86 164 95 180 10 17 50 93 90 170 40 77 90 172 110
210 21 39 66 124 100 190 34 66 102 194 150 285 359 679 353 666 346 723 -6
45 -34 100 -60 120 -31 21 -97 57 -426 230 -52 27 -135 71 -185 97 -49 26
-144 76 -210 110 -66 35 -151 80 -190 100 -492 262 -571 300 -617 300 -60 -1
-107 -27 -147 -81 l-34 -46 -136 29 c-159 33 -176 36 -216 43 -16 3 -38 8 -47
11 -16 5 -35 9 -88 19 -14 3 -34 7 -45 9 -11 3 -84 19 -163 35 -79 17 -151 32
-160 35 -9 3 -30 8 -47 10 -16 3 -70 14 -120 24 -50 10 -106 15 -125 12z"/>
</g>
</svg>
